<?xml version="1.0" encoding="utf-8"?>
<!-- Generator: Adobe Illustrator 14.0.0, SVG Export Plug-In  -->
<!DOCTYPE svg PUBLIC "-//W3C//DTD SVG 1.1//EN" "http://www.w3.org/Graphics/SVG/1.1/DTD/svg11.dtd" [
	<!ENTITY ns_flows "http://ns.adobe.com/Flows/1.0/">
]>
<svg version="1.1"
	 xmlns="http://www.w3.org/2000/svg" xmlns:xlink="http://www.w3.org/1999/xlink" xmlns:a="http://ns.adobe.com/AdobeSVGViewerExtensions/3.0/"
	 x="0px" y="0px" width="50px" height="51px" viewBox="0 -0.996 50 51" enable-background="new 0 -0.996 50 51"
	 xml:space="preserve">
<defs>
</defs>
<g>
	<defs>
		<rect id="SVGID_1_" width="50" height="50.004"/>
	</defs>
	<clipPath id="SVGID_2_">
		<use xlink:href="#SVGID_1_"  overflow="visible"/>
	</clipPath>
	
		<path clip-path="url(#SVGID_2_)" fill="none" stroke="#000000" stroke-width="2" stroke-linecap="round" stroke-miterlimit="10" d="
		M49,27.956v-6l-7.141-1.167c-0.424-1.692-1.087-3.281-1.962-4.737l4.162-5.932l-4.243-4.242l-5.856,4.21
		c-1.46-0.884-3.06-1.557-4.763-1.982L27.952,1h-6l-1.156,7.083c-1.704,0.418-3.314,1.082-4.777,1.963L10.18,5.875l-4.244,4.241
		l4.108,5.873c-0.888,1.47-1.564,3.077-1.992,4.793L1,21.956v6l7.044,1.248c0.425,1.712,1.101,3.319,1.992,4.791l-4.163,5.823
		l4.241,4.245l5.881-4.119c1.468,0.883,3.073,1.552,4.777,1.973l1.18,7.087h6l1.261-7.105c1.695-0.43,3.297-1.105,4.751-1.99
		l5.922,4.155l4.242-4.245l-4.227-5.87c0.875-1.456,1.539-3.047,1.958-4.74L49,27.956z"/>
	
		<path clip-path="url(#SVGID_2_)" fill="none" stroke="#FFFFFF" stroke-width="2" stroke-linecap="round" stroke-miterlimit="10" d="
		M49,27.956v-6l-7.141-1.167c-0.424-1.692-1.087-3.281-1.962-4.737l4.162-5.932l-4.243-4.242l-5.856,4.21
		c-1.46-0.884-3.06-1.557-4.763-1.982L27.952,1h-6l-1.156,7.083c-1.704,0.418-3.314,1.082-4.777,1.963L10.18,5.875l-4.244,4.241
		l4.108,5.873c-0.888,1.47-1.564,3.077-1.992,4.793L1,21.956v6l7.044,1.248c0.425,1.712,1.101,3.319,1.992,4.791l-4.163,5.823
		l4.241,4.245l5.881-4.119c1.468,0.883,3.073,1.552,4.777,1.973l1.18,7.087h6l1.261-7.105c1.695-0.43,3.297-1.105,4.751-1.99
		l5.922,4.155l4.242-4.245l-4.227-5.87c0.875-1.456,1.539-3.047,1.958-4.74L49,27.956z"/>
</g>
</svg>
