<?xml version="1.0" encoding="utf-8"?>
<!-- Generator: Adobe Illustrator 14.0.0, SVG Export Plug-In  -->
<!DOCTYPE svg PUBLIC "-//W3C//DTD SVG 1.1//EN" "http://www.w3.org/Graphics/SVG/1.1/DTD/svg11.dtd" [
	<!ENTITY ns_flows "http://ns.adobe.com/Flows/1.0/">
]>
<svg version="1.1"
	 xmlns="http://www.w3.org/2000/svg" xmlns:xlink="http://www.w3.org/1999/xlink" xmlns:a="http://ns.adobe.com/AdobeSVGViewerExtensions/3.0/"
	 x="0px" y="0px" width="42px" height="39px" viewBox="0 0 42 39" enable-background="new 0 0 42 39" xml:space="preserve">
<defs>
</defs>
<polygon fill="#FFFFFF" points="21,22 14,31 19,31 13.923,39 25.001,29 20,29 27,22 "/>
<g>
	<defs>
		<rect id="SVGID_2_" width="42" height="39"/>
	</defs>
	<clipPath id="SVGID_3_">
		<use xlink:href="#SVGID_2_"  overflow="visible"/>
	</clipPath>
	
		<line clip-path="url(#SVGID_3_)" fill="none" stroke="#FFFFFF" stroke-width="2" stroke-linecap="round" stroke-miterlimit="10" x1="28" y1="36" x2="32" y2="32"/>
</g>
<line fill="none" stroke="#FFFFFF" stroke-width="2" stroke-linecap="round" stroke-miterlimit="10" x1="4" y1="35" x2="8" y2="31"/>
<g>
	<defs>
		<rect id="SVGID_1_" width="42" height="39"/>
	</defs>
	<clipPath id="SVGID_4_">
		<use xlink:href="#SVGID_1_"  overflow="visible"/>
	</clipPath>
	
		<path clip-path="url(#SVGID_4_)" fill="none" stroke="#FFFFFF" stroke-width="2" stroke-linecap="round" stroke-miterlimit="10" d="
		M29,26h3c4.971,0,9-4.029,9-9c0-4.971-4.029-9-9-9c-1.49,0-2.891,0.368-4.128,1.008C27.154,4.472,23.238,1,18.5,1
		C13.253,1,9,5.253,9,10.5c0,0.547,0.057,1.08,0.146,1.602C8.772,12.04,8.391,12,8,12c-3.866,0-7,3.134-7,7s3.134,7,7,7h4"/>
</g>
</svg>
